<svg width="14" height="48" viewBox="0 0 14 48" fill="none" xmlns="http://www.w3.org/2000/svg">
<g clip-path="url(#clip0_68_6255)">
<rect x="14" y="0.75293" width="47" height="14" rx="5" transform="rotate(90 14 0.75293)" fill="white"/>
<path d="M6.29289 43.46C6.68342 43.8506 7.31658 43.8506 7.70711 43.46L14.0711 37.0961C14.4616 36.7056 14.4616 36.0724 14.0711 35.6819C13.6805 35.2913 13.0474 35.2913 12.6569 35.6819L7 41.3387L1.34315 35.6819C0.952622 35.2913 0.319457 35.2913 -0.0710675 35.6819C-0.461592 36.0724 -0.461592 36.7056 -0.0710676 37.0961L6.29289 43.46ZM8 30.7529C8 30.2006 7.55229 29.7529 7 29.7529C6.44772 29.7529 6 30.2006 6 30.7529L8 30.7529ZM8 42.7529L8 30.7529L6 30.7529L6 42.7529L8 42.7529Z" fill="#002D58"/>
<path d="M6 20.7529C6 21.3052 6.44772 21.7529 7 21.7529C7.55228 21.7529 8 21.3052 8 20.7529L6 20.7529ZM7.70711 8.04582C7.31658 7.6553 6.68342 7.6553 6.29289 8.04582L-0.0710675 14.4098C-0.461592 14.8003 -0.461592 15.4335 -0.0710676 15.824C0.319457 16.2145 0.952622 16.2145 1.34315 15.824L7 10.1671L12.6569 15.824C13.0474 16.2145 13.6805 16.2145 14.0711 15.824C14.4616 15.4335 14.4616 14.8003 14.0711 14.4098L7.70711 8.04582ZM8 20.7529L8 8.75293L6 8.75293L6 20.7529L8 20.7529Z" fill="#002D58"/>
</g>
<rect x="13.75" y="1.00293" width="46.5" height="13.5" rx="4.75" transform="rotate(90 13.75 1.00293)" stroke="white" stroke-width="0.5"/>
<defs>
<clipPath id="clip0_68_6255">
<rect x="14" y="0.75293" width="47" height="14" rx="5" transform="rotate(90 14 0.75293)" fill="white"/>
</clipPath>
</defs>
</svg>
