<svg width="183" height="53" viewBox="0 0 183 53" fill="none" xmlns="http://www.w3.org/2000/svg">
<g clip-path="url(#clip0_1133_2054)">
<path d="M34.0329 32.9224V32.1991L34.8971 32.0245V23.0082L34.0329 22.8336V22.1104H41.8485L42.0773 24.2678L41.3402 24.4049C41.1114 23.3449 40.5523 23.0456 39.4467 23.0456H36.4729V26.8242H39.8787L40.0567 25.9762H40.8954V28.7322H40.0567L39.8787 27.7221H36.4729V32.0369L37.515 32.2115V32.9348H34.0329V32.9224Z" fill="#000E54"/>
<path d="M48.4569 32.0869L48.6221 32.3986C48.5712 32.5109 48.101 33.1219 47.3385 33.1219C46.6014 33.1219 46.271 32.6979 46.2583 32.2739C45.8771 32.8476 45.1273 33.1718 44.225 33.1718C42.8271 33.1718 42.1917 32.2739 42.1917 31.5382C42.1917 30.3909 42.9287 29.7549 44.225 29.5179L46.2329 29.1563V27.6848C46.2329 27.0986 45.8135 26.6497 45.1654 26.6497C44.53 26.6497 44.2123 26.9116 43.9454 27.2109C44.1614 28.2085 43.2464 28.7198 42.395 28.2584C42.4331 26.7619 43.92 25.8017 45.3179 25.8017C46.9573 25.8017 47.58 26.737 47.58 27.9466V31.7626C47.58 32.0245 47.7452 32.224 47.9994 32.224C48.2027 32.224 48.3933 32.1368 48.4569 32.0869ZM46.2202 31.1391V29.9419L44.5808 30.2537C44.1487 30.341 43.4625 30.5779 43.4625 31.3137C43.4625 31.8375 43.8437 32.2989 44.5935 32.2989C45.3942 32.2989 46.0042 31.7751 46.2202 31.1391Z" fill="#000E54"/>
<path d="M49.2575 32.9224V32.2988L50.0073 32.1243V23.6692L49.1685 23.4447V22.8711C49.9819 22.7339 50.3885 22.472 50.7571 21.9358L51.3416 22.0356V32.1243L52.0914 32.2988V32.9224H49.2575Z" fill="#000E54"/>
<path d="M52.9175 32.9224V32.2989L53.591 32.1367V23.6692L52.7523 23.4447V22.8711C53.5656 22.7339 53.9723 22.472 54.3408 21.9358L54.9254 22.0356V29.281L57.5814 26.9116L56.6791 26.6871V26.0636H59.5258V26.6871C58.8523 26.8492 58.5727 26.949 58.1279 27.373L56.6664 28.6824L58.992 31.7003C59.2462 32.0245 59.5766 32.2864 60.0723 32.3113V32.9349H58.1787L55.6752 29.5803L54.9254 30.2661V32.1118L55.7641 32.3113V32.9349H52.9175V32.9224Z" fill="#000E54"/>
<path d="M63.4908 27.6348C63.4908 24.2054 66.1595 21.8734 69.1206 21.8734C70.9379 21.8734 72.1833 22.6216 72.6789 23.0831L72.8568 22.6092H73.4414L74.1277 25.2031L73.4033 25.4649C72.8822 24.5172 71.6368 23.0207 69.3239 23.0207C67.2143 23.0207 65.0793 24.2304 65.0793 27.2857C65.0793 30.2162 67.0872 32.0868 69.4383 32.0868C71.4716 32.0868 72.9966 30.6153 73.5685 29.4057L74.3056 29.6675L73.8227 31.8499C73.6575 31.8499 73.4922 31.8624 73.2381 31.9497C72.5391 32.1741 71.4208 33.1967 69.146 33.1967C65.8799 33.1718 63.4908 31.0144 63.4908 27.6348Z" fill="#000E54"/>
<path d="M82.5406 29.4057C82.5406 31.6504 80.7996 33.1718 78.8679 33.1718C76.9235 33.1718 75.3604 31.7751 75.3604 29.5678C75.3604 27.3231 77.1015 25.8017 79.0331 25.8017C80.9648 25.8017 82.5406 27.1859 82.5406 29.4057ZM81.1427 29.6925C81.1427 27.7596 80.0879 26.6622 78.8806 26.6622C77.7115 26.6622 76.7583 27.4353 76.7583 29.2685C76.7583 31.2015 77.8131 32.2989 79.0204 32.2989C80.1896 32.2989 81.1427 31.5382 81.1427 29.6925Z" fill="#000E54"/>
<path d="M83.176 32.9224V32.2988L83.9258 32.1243V23.6692L83.087 23.4447V22.8711C83.9004 22.7339 84.307 22.472 84.6756 21.9358L85.2602 22.0356V32.1243L86.01 32.2988V32.9224H83.176Z" fill="#000E54"/>
<path d="M86.7979 32.9224V32.2988L87.5477 32.1243V23.6692L86.7089 23.4447V22.8711C87.5223 22.7339 87.9289 22.472 88.2975 21.9358L88.8821 22.0356V32.1243L89.6318 32.2988V32.9224H86.7979Z" fill="#000E54"/>
<path d="M91.6652 29.7424C91.7287 31.0019 92.5802 31.9995 93.7493 31.9995C94.766 31.9995 95.465 31.5631 95.986 30.8024L96.3418 31.0144C96.0623 32.2739 94.9693 33.1593 93.3554 33.1593C91.7033 33.1593 90.28 31.9995 90.28 29.8795C90.28 27.0113 92.0337 25.7892 93.6604 25.7892C95.1854 25.7892 96.4562 26.6746 96.4562 28.7697L96.1893 29.1687L91.6652 29.7424ZM91.6906 28.8944L94.9439 28.4704C94.9439 27.1734 94.2704 26.6372 93.5714 26.6372C92.326 26.6372 91.7414 27.6722 91.6906 28.8944Z" fill="#000E54"/>
<path d="M98.3879 33.284C97.905 33.0845 97.6254 32.6605 97.6254 32.3113C97.6254 31.6753 98.21 31.2763 98.8581 30.8398C97.9558 30.4657 97.2695 29.6551 97.2695 28.4704C97.2695 26.7619 98.6929 25.8017 100.154 25.8017C100.891 25.8017 101.629 26.0511 102.162 26.525L103.37 25.8017C103.814 25.9638 103.992 26.5125 103.789 26.9989L102.734 27.2233C102.912 27.5725 103.014 27.9591 103.014 28.4205C103.014 30.129 101.59 31.0892 100.129 31.0892C99.9256 31.0892 99.7095 31.0892 99.5062 31.0393C99.125 31.3386 98.9343 31.5257 98.9343 31.7626C98.9343 31.9622 99.0741 32.1118 99.5062 32.1742L101.73 32.4859C103.065 32.6605 103.802 33.2217 103.802 34.1695C103.802 35.5163 102.467 36.7758 99.9256 36.7758C98.4768 36.7758 97.0154 36.3019 97.0154 35.005C97.0154 34.2193 97.6635 33.7455 98.3879 33.284ZM99.0995 33.4337C98.4768 33.9076 98.21 34.2568 98.21 34.6808C98.21 35.4539 98.8581 35.8779 100.027 35.8779C101.578 35.8779 102.264 35.1921 102.264 34.6309C102.264 34.157 102.035 33.8452 101.196 33.733L99.0995 33.4337ZM100.256 30.2537C100.993 30.2537 101.654 29.7673 101.654 28.5702C101.654 27.1735 100.891 26.6372 100.015 26.6372C99.2775 26.6372 98.6166 27.1236 98.6166 28.3208C98.6166 29.7175 99.3918 30.2537 100.256 30.2537Z" fill="#000E54"/>
<path d="M105.543 29.7424C105.606 31.0019 106.458 31.9995 107.627 31.9995C108.644 31.9995 109.342 31.5631 109.864 30.8024L110.219 31.0144C109.94 32.2739 108.847 33.1593 107.233 33.1593C105.581 33.1593 104.157 31.9995 104.157 29.8795C104.157 27.0113 105.911 25.7892 107.538 25.7892C109.063 25.7892 110.334 26.6746 110.334 28.7697L110.067 29.1687L105.543 29.7424ZM105.568 28.8944L108.821 28.4704C108.821 27.1734 108.148 26.6372 107.449 26.6372C106.204 26.6372 105.619 27.6722 105.568 28.8944Z" fill="#000E54"/>
<path d="M121.072 29.4057C121.072 31.6504 119.331 33.1718 117.4 33.1718C115.455 33.1718 113.892 31.7751 113.892 29.5678C113.892 27.3231 115.633 25.8017 117.565 25.8017C119.509 25.8017 121.072 27.1859 121.072 29.4057ZM119.674 29.6925C119.674 27.7596 118.62 26.6622 117.412 26.6622C116.243 26.6622 115.29 27.4353 115.29 29.2685C115.29 31.2015 116.345 32.2989 117.552 32.2989C118.721 32.2989 119.674 31.5382 119.674 29.6925Z" fill="#000E54"/>
<path d="M126.994 22.8461C126.994 23.3824 126.524 23.6692 126.054 23.6692C126.003 23.2951 125.698 22.8212 125.114 22.8212C124.58 22.8212 123.906 23.2202 123.906 24.4922V26.0511H125.749V26.8741H123.906V32.1118L124.986 32.3113V32.9348H121.809V32.3113L122.559 32.1367V26.8741H121.479V26.2506L122.559 26.0511V25.2155C122.559 23.1454 123.894 21.8734 125.482 21.8734C126.232 21.8734 126.994 22.1727 126.994 22.8461Z" fill="#000E54"/>
<path d="M129.498 32.9224L128.875 30.0666L129.663 29.7923C130.146 30.8398 131.099 32.1617 132.84 32.1617C133.92 32.1617 135.026 31.5756 135.026 30.1913C135.026 27.5725 129.358 28.1212 129.358 24.804C129.358 22.8337 130.896 21.861 132.662 21.861C133.844 21.861 134.518 22.3723 134.734 22.6341L134.937 22.1104H135.611L136.284 24.6793L135.496 24.9537C135.026 23.956 134.06 22.8586 132.65 22.8586C131.43 22.8586 130.858 23.557 130.858 24.4424C130.858 26.8118 136.526 26.2132 136.526 29.8172C136.526 32.2365 134.416 33.1593 132.751 33.1593C131.785 33.1593 131.01 32.8476 130.349 32.4111L130.146 32.9224H129.498Z" fill="#000E54"/>
<path d="M137.352 36.5264V35.9028L138.025 35.7407V27.4353L137.186 27.2108V26.6372C138 26.5 138.406 26.2381 138.775 25.7019L139.36 25.8017L139.271 26.9864C139.842 26.3005 140.745 25.8017 141.774 25.8017C143.426 25.8017 144.811 26.9614 144.811 29.0814C144.811 31.9621 142.778 33.1718 141.113 33.1718C140.275 33.1718 139.728 32.9473 139.347 32.6605V35.7033L140.186 35.9028V36.5264H137.352ZM139.36 27.8094V31.6878C139.537 31.8873 140.122 32.249 140.961 32.249C142.143 32.249 143.413 31.4758 143.413 29.3932C143.413 27.9341 142.549 26.949 141.253 26.949C140.529 26.9614 139.83 27.3231 139.36 27.8094Z" fill="#000E54"/>
<path d="M152.843 29.4057C152.843 31.6504 151.102 33.1718 149.17 33.1718C147.226 33.1718 145.663 31.7751 145.663 29.5678C145.663 27.3231 147.404 25.8017 149.336 25.8017C151.28 25.8017 152.843 27.1859 152.843 29.4057ZM151.445 29.6925C151.445 27.7596 150.39 26.6622 149.183 26.6622C148.014 26.6622 147.061 27.4353 147.061 29.2685C147.061 31.2015 148.116 32.2989 149.323 32.2989C150.492 32.2989 151.445 31.5382 151.445 29.6925Z" fill="#000E54"/>
<path d="M157.698 27.6224C157.634 27.373 157.367 27.136 157.024 27.136C156.503 27.136 155.969 27.5725 155.626 28.009V32.1243L156.465 32.3238V32.9473H153.618V32.3238L154.292 32.1617V27.4353L153.453 27.2108V26.6372C154.266 26.5 154.673 26.2381 155.042 25.7019L155.626 25.8017L155.537 27.2732C155.919 26.6123 156.554 25.8017 157.558 25.8017C158.041 25.8017 158.562 26.101 158.562 26.6996C158.562 27.2732 158.13 27.6224 157.698 27.6224Z" fill="#000E54"/>
<path d="M160.074 31.7127V26.8617H158.994V26.2381C159.909 26.076 160.519 25.253 160.837 24.3676L161.421 24.4673V26.0386H163.264V26.8617H161.421V31.4384C161.421 31.9497 161.65 32.224 162.095 32.224C162.412 32.224 162.717 32.0245 162.883 31.825L163.238 32.0868C163.061 32.6106 162.451 33.1718 161.65 33.1718C160.735 33.1718 160.074 32.6605 160.074 31.7127Z" fill="#000E54"/>
<path d="M42.5856 49.3087C42.3314 48.7725 42.1027 48.2737 41.8485 47.7998C40.6412 49.0344 39.256 49.5581 37.8835 49.5581C35.4308 49.5581 33.8041 48.1614 33.8041 46.3906C33.8041 44.6572 35.0114 43.5723 36.2823 43.0111C35.5833 42.4873 34.9606 41.8014 34.9606 40.8163C34.9606 39.4195 36.2314 38.2473 37.8962 38.2473C39.4339 38.2473 40.6666 39.245 40.6666 40.6541C40.6666 41.552 39.866 42.5372 38.8112 42.9986C39.0273 43.0984 39.3831 43.2605 39.65 43.4101C40.7302 44.0212 41.5689 44.8068 42.2679 45.7671C42.8652 44.7944 43.3862 43.5224 43.7421 41.7391L42.9033 41.5645V40.8537H45.5212V41.5645L44.6825 41.7391C44.3012 43.8092 43.615 45.393 42.8143 46.6026C42.9033 46.7148 42.9668 46.852 43.0177 46.9643C43.8691 48.4358 44.4156 48.6977 44.9112 48.6977V49.3087H42.5856ZM41.3402 46.9144C40.6412 45.8045 39.8914 44.8692 38.9002 44.3579C38.3029 44.0586 37.6293 43.8217 36.8923 43.4101C35.9264 43.8715 35.3418 44.757 35.3418 45.9666C35.3418 47.5254 36.7652 48.3235 38.1504 48.3235C39.1289 48.3235 40.2218 48.0866 41.3402 46.9144ZM38.0741 42.6245C38.9383 42.3252 39.4466 41.4647 39.4466 40.8038C39.4466 39.8061 38.7223 39.0454 37.7564 39.0454C36.8923 39.0454 36.1679 39.7064 36.1679 40.517C36.1679 41.4523 36.6381 41.8638 38.0741 42.6245Z" fill="#000E54"/>
<path d="M59.1573 48.3984L60.0214 48.573V49.2962H56.7173V48.573L57.5814 48.3984V44.0835H51.8627V48.3984L52.7268 48.573V49.2962H49.4227V48.573L50.2868 48.3984V39.3821L49.4227 39.2075V38.4843H52.7268V39.2075L51.8627 39.3821V43.1981H57.5814V39.3821L56.7173 39.2075V38.4843H60.0214V39.2075L59.1573 39.3821V48.3984Z" fill="#000E54"/>
<path d="M61.4956 43.248L60.6569 43.0485V42.4249H62.83V47.2885C62.83 47.9993 63.1858 48.3734 63.8339 48.3734C64.3296 48.3734 65.2319 48.1614 66.096 47.4256V43.248L65.2573 43.0485V42.4249H67.4304V48.1115H68.2692V48.735C67.7227 48.8722 67.1381 49.0967 66.6806 49.4583L66.096 49.3586L66.185 48.1739C65.3462 48.9595 64.3931 49.5456 63.3637 49.5456C62.3089 49.5456 61.5083 48.8473 61.5083 47.9245V43.248H61.4956Z" fill="#000E54"/>
<path d="M69.0697 49.3087V48.6852L69.7433 48.5231V43.8217L68.9045 43.5972V43.0236C69.7179 42.8864 70.1245 42.6245 70.4931 42.0883L71.0777 42.188L70.9887 43.3977C71.7258 42.7243 72.5264 42.188 73.4795 42.188C74.3691 42.188 75.0681 42.6744 75.2714 43.3852C76.0085 42.7118 76.7964 42.188 77.7495 42.188C78.8043 42.188 79.605 42.8988 79.605 43.8092V48.4981L80.4437 48.6977V49.3212H77.597V48.6977L78.2706 48.5356V44.4577C78.2706 43.7593 77.9147 43.3727 77.2666 43.3727C76.7964 43.3727 76.0339 43.5473 75.3477 44.1708V48.4981L76.1864 48.6977V49.3212H73.327V48.6977L74.0006 48.5356V44.4577C74.0006 43.7593 73.6447 43.3727 72.9966 43.3727C72.5264 43.3727 71.7639 43.5473 71.0777 44.1708V48.4981L71.9164 48.6977V49.3212H69.0697V49.3087Z" fill="#000E54"/>
<path d="M87.4079 48.4732L87.5731 48.7849C87.5223 48.8972 87.0521 49.5082 86.2896 49.5082C85.5525 49.5082 85.2221 49.0842 85.2094 48.6602C84.8281 49.2339 84.0783 49.5581 83.176 49.5581C81.7781 49.5581 81.1427 48.6602 81.1427 47.9245C81.1427 46.7772 81.8798 46.1412 83.176 45.9042L85.1839 45.5426V44.071C85.1839 43.4849 84.7646 43.036 84.1165 43.036C83.481 43.036 83.1633 43.2979 82.8964 43.5972C83.1125 44.5948 82.1975 45.1061 81.346 44.6447C81.3842 43.1482 82.871 42.188 84.2689 42.188C85.9083 42.188 86.531 43.1233 86.531 44.3329V48.1365C86.531 48.3983 86.6962 48.5979 86.9504 48.5979C87.1537 48.5979 87.3444 48.523 87.4079 48.4732ZM85.1712 47.5129V46.3158L83.5319 46.6275C83.0998 46.7148 82.4135 46.9518 82.4135 47.6875C82.4135 48.2113 82.7948 48.6727 83.5446 48.6727C84.3452 48.6852 84.9552 48.1614 85.1712 47.5129Z" fill="#000E54"/>
<path d="M88.2466 49.3087V48.6852L88.9202 48.5231V43.8217L88.0814 43.5972V43.0236C88.8948 42.8864 89.3014 42.6245 89.67 42.0883L90.2546 42.188L90.1656 43.5598C91.0043 42.7741 91.9575 42.188 92.9868 42.188C94.0416 42.188 94.8423 42.8988 94.8423 43.8092V48.4981L95.681 48.6977V49.3212H92.8343V48.6977L93.5079 48.5356V44.4577C93.5079 43.7593 93.1521 43.3727 92.5039 43.3727C92.0083 43.3727 91.106 43.5847 90.2418 44.3205V48.4981L91.0806 48.6977V49.3212H88.2466V49.3087Z" fill="#000E54"/>
<path d="M103.916 38.4967C107.487 38.4967 110.283 40.3049 110.283 43.9089C110.283 47.5129 107.487 49.3212 103.916 49.3212H99.4427V48.5979L100.307 48.4233V39.4071L99.4427 39.2325V38.5092H103.916V38.4967ZM108.644 44.0835C108.644 40.8536 106.559 39.432 103.954 39.432H101.883V48.1988C102.137 48.2612 102.925 48.3734 103.636 48.3734C106.254 48.3734 108.644 47.1388 108.644 44.0835Z" fill="#000E54"/>
<path d="M114.032 52.9127C113.498 53.1372 113.041 52.9127 112.926 52.5261L114.616 49.3087L112.087 43.7717C111.884 43.3353 111.782 43.2106 111.096 43.0485V42.4249H114.159V43.0485L113.346 43.248L115.265 47.463L117.158 43.2355L116.37 43.0609V42.4374H118.925V43.0609C118.505 43.1607 118.187 43.3103 117.971 43.7593L115.315 49.4708L114.032 52.9127Z" fill="#000E54"/>
<path d="M119.725 49.3087V48.6852L120.399 48.5231V43.8217L119.56 43.5972V43.0236C120.373 42.8864 120.78 42.6245 121.148 42.0883L121.733 42.188L121.644 43.5598C122.483 42.7741 123.436 42.188 124.465 42.188C125.52 42.188 126.321 42.8988 126.321 43.8092V48.4981L127.16 48.6977V49.3212H124.313V48.6977L124.986 48.5356V44.4577C124.986 43.7593 124.631 43.3727 123.982 43.3727C123.487 43.3727 122.585 43.5847 121.72 44.3205V48.4981L122.559 48.6977V49.3212H119.725V49.3087Z" fill="#000E54"/>
<path d="M134.124 48.4732L134.289 48.7849C134.238 48.8972 133.768 49.5082 133.005 49.5082C132.268 49.5082 131.938 49.0842 131.925 48.6602C131.544 49.2339 130.794 49.5581 129.892 49.5581C128.494 49.5581 127.859 48.6602 127.859 47.9245C127.859 46.7772 128.596 46.1412 129.892 45.9042L131.9 45.5426V44.071C131.9 43.4849 131.48 43.036 130.832 43.036C130.197 43.036 129.879 43.2979 129.612 43.5972C129.828 44.5948 128.913 45.1061 128.062 44.6447C128.1 43.1482 129.587 42.188 130.985 42.188C132.624 42.188 133.247 43.1233 133.247 44.3329V48.1365C133.247 48.3983 133.412 48.5979 133.666 48.5979C133.882 48.5979 134.06 48.523 134.124 48.4732ZM131.887 47.5129V46.3158L130.248 46.6275C129.816 46.7148 129.129 46.9518 129.129 47.6875C129.129 48.2113 129.511 48.6727 130.26 48.6727C131.074 48.6852 131.671 48.1614 131.887 47.5129Z" fill="#000E54"/>
<path d="M134.962 49.3087V48.6852L135.636 48.5231V43.8217L134.797 43.5972V43.0236C135.611 42.8864 136.017 42.6245 136.386 42.0883L136.97 42.188L136.881 43.3977C137.618 42.7243 138.419 42.188 139.372 42.188C140.262 42.188 140.961 42.6744 141.164 43.3852C141.901 42.7118 142.689 42.188 143.642 42.188C144.697 42.188 145.498 42.8988 145.498 43.8092V48.4981L146.336 48.6977V49.3212H143.49V48.6977L144.163 48.5356V44.4577C144.163 43.7593 143.807 43.3727 143.159 43.3727C142.689 43.3727 141.927 43.5473 141.24 44.1708V48.4981L142.079 48.6977V49.3212H139.232V48.6977L139.906 48.5356V44.4577C139.906 43.7593 139.55 43.3727 138.902 43.3727C138.432 43.3727 137.669 43.5473 136.983 44.1708V48.4981L137.822 48.6977V49.3212H134.962V49.3087Z" fill="#000E54"/>
<path d="M147.124 49.3087V48.6852L147.874 48.5106V43.8217L147.035 43.5972V43.0236C147.849 42.8864 148.255 42.6245 148.624 42.0883L149.209 42.188V48.5106L149.958 48.6852V49.3087H147.124ZM148.624 39.3323C149.094 39.3323 149.463 39.6939 149.463 40.1553C149.463 40.6167 149.094 40.9784 148.624 40.9784C148.154 40.9784 147.785 40.6167 147.785 40.1553C147.798 39.6939 148.154 39.3323 148.624 39.3323Z" fill="#000E54"/>
<path d="M156.745 43.485C156.745 43.9713 156.262 44.2706 155.791 44.2831C155.525 43.6221 155.067 43.1857 154.19 43.1857C152.932 43.1857 151.954 44.2207 151.954 45.9666C151.954 47.4257 152.907 48.3734 154.19 48.3734C155.156 48.3734 155.855 47.937 156.351 47.3259L156.706 47.5379C156.452 48.5979 155.448 49.5332 153.682 49.5332C152.03 49.5332 150.556 48.3984 150.556 46.2909C150.556 43.6845 152.691 42.1631 154.648 42.1631C155.639 42.1756 156.745 42.5871 156.745 43.485Z" fill="#000E54"/>
<path d="M158.117 49.3087H157.698L157.367 47.3134L157.863 47.2012C158.27 48.0242 159.083 48.7725 160.125 48.7725C161.04 48.7725 161.408 48.1614 161.408 47.7249C161.408 46.2035 157.621 46.4654 157.621 44.1583C157.621 43.0734 158.575 42.188 159.795 42.188C160.494 42.188 161.065 42.4125 161.37 42.6494L161.434 42.4374H161.955L162.273 44.1958L161.777 44.308C161.561 43.8341 161.015 42.9861 159.96 42.9861C159.223 42.9861 158.905 43.4226 158.905 43.8216C158.905 45.2183 162.667 44.8692 162.667 47.3009C162.667 48.6602 161.459 49.583 160.125 49.583C159.401 49.583 158.587 49.184 158.308 48.8348L158.117 49.3087Z" fill="#000E54"/>
<path d="M34.6302 14.7278L33.8677 11.236L34.8336 10.8993C35.4309 12.1838 36.5873 13.8049 38.7223 13.8049C40.0567 13.8049 41.4038 13.0816 41.4038 11.3981C41.4038 8.19316 34.465 8.86657 34.465 4.80116C34.465 2.39434 36.3459 1.18469 38.519 1.18469C39.9677 1.18469 40.7938 1.80822 41.0607 2.13246L41.3021 1.49646H42.1154L42.9288 4.65152L41.9629 4.98822C41.3911 3.7661 40.2092 2.41928 38.4809 2.41928C36.9813 2.41928 36.295 3.27975 36.295 4.36469C36.295 7.27034 43.2338 6.53457 43.2338 10.9492C43.2338 13.9172 40.654 15.0395 38.6079 15.0395C37.4261 15.0395 36.4729 14.6529 35.6596 14.1167L35.4182 14.7402H34.6302V14.7278Z" fill="#F76900"/>
<path d="M46.7667 19.1423C46.1058 19.4291 45.5594 19.1423 45.4196 18.656L47.4911 14.7277L44.3775 7.94372C44.1361 7.40749 44.009 7.25784 43.1702 7.05831V6.29761H46.9192V7.05831L45.9152 7.29525L48.2663 12.4581L50.5792 7.28278L49.6133 7.05831V6.29761H52.7396V7.05831C52.2313 7.18302 51.8373 7.35761 51.5704 7.91878L48.3171 14.9273L46.7667 19.1423Z" fill="#F76900"/>
<path d="M58.6744 8.21813C58.5981 7.91883 58.2677 7.61954 57.8611 7.61954C57.2256 7.61954 56.5775 8.15577 56.1454 8.67954V13.7177L57.1748 13.9546V14.7153H53.6927V13.9671L54.5061 13.7675V8.00613L53.4767 7.7193V7.02095C54.4806 6.85883 54.9763 6.5346 55.4211 5.87366L56.1327 5.99836L56.0311 7.8066C56.5013 7.00848 57.2765 5.99836 58.5092 5.99836C59.1065 5.99836 59.7419 6.36001 59.7419 7.10825C59.7419 7.8066 59.2081 8.21813 58.6744 8.21813Z" fill="#F76900"/>
<path d="M65.0794 12.5329V11.0739L63.0715 11.4605C62.5377 11.5602 61.699 11.8595 61.699 12.7699C61.699 13.4059 62.1692 13.9795 63.0969 13.9795C64.0754 13.967 64.8125 13.3186 65.0794 12.5329ZM67.8244 13.7052L68.0277 14.0917C67.9642 14.2289 67.3923 14.9772 66.4519 14.9772C65.5496 14.9772 65.143 14.4534 65.1175 13.9296C64.6473 14.628 63.7196 15.0395 62.6267 15.0395C60.9111 15.0395 60.1359 13.9296 60.1359 13.0317C60.1359 11.6226 61.0382 10.8494 62.6267 10.5626L65.0794 10.1261V8.30539C65.0794 7.5821 64.5711 7.04586 63.7704 7.04586C62.9952 7.04586 62.6013 7.3701 62.2709 7.73174C62.5377 8.95386 61.4067 9.57739 60.3646 9.01622C60.4027 7.19551 62.2327 6.0108 63.9484 6.0108C65.9563 6.0108 66.7061 7.1581 66.7061 8.6421V13.3186C66.7061 13.6428 66.9094 13.8797 67.2144 13.8797C67.5194 13.8673 67.7482 13.7675 67.8244 13.7052Z" fill="#F76900"/>
<path d="M75.9323 7.59455C75.9323 8.19313 75.335 8.55478 74.7632 8.57972C74.4328 7.7816 73.8863 7.2329 72.7934 7.2329C71.2557 7.2329 70.0484 8.49243 70.0484 10.6498C70.0484 12.4331 71.2176 13.6054 72.7934 13.6054C73.9753 13.6054 74.8394 13.0691 75.4367 12.3209L75.8688 12.5828C75.5638 13.8922 74.3311 15.027 72.158 15.027C70.1373 15.027 68.3328 13.6428 68.3328 11.0489C68.3328 7.85643 70.9507 5.98584 73.3526 5.98584C74.5853 5.99831 75.9323 6.49713 75.9323 7.59455Z" fill="#F76900"/>
<path d="M77.7115 7.29525L76.6821 7.05831V6.29761H79.3382V12.2585C79.3382 13.119 79.7703 13.5804 80.5709 13.5804C81.1809 13.5804 82.2865 13.3185 83.3286 12.4207V7.30772L82.2992 7.07078V6.31008H84.9553V13.2687H85.9846V14.0294C85.3111 14.1915 84.5867 14.4658 84.0403 14.9148L83.3286 14.7901L83.4303 13.3435C82.4009 14.3037 81.2444 15.027 79.9736 15.027C78.69 15.027 77.6988 14.1665 77.6988 13.0442V7.29525H77.7115Z" fill="#F76900"/>
<path d="M87.7384 14.7278H87.23L86.8234 12.2835L87.4334 12.1464C87.929 13.144 88.9329 14.0668 90.1911 14.0668C91.3221 14.0668 91.7669 13.3186 91.7669 12.7824C91.7669 10.9118 87.1157 11.236 87.1157 8.40518C87.1157 7.08329 88.2848 5.99835 89.7717 5.99835C90.6359 5.99835 91.3221 6.28518 91.6907 6.55953L91.7669 6.29765H92.4023L92.7963 8.44259L92.1863 8.57976C91.9194 7.99365 91.2459 6.95859 89.9496 6.95859C89.0473 6.95859 88.6661 7.49482 88.6661 7.98118C88.6661 9.68965 93.2665 9.26565 93.2665 12.2336C93.2665 13.9047 91.7923 15.0271 90.153 15.0271C89.2761 15.0271 88.2721 14.5407 87.9163 14.1042L87.7384 14.7278Z" fill="#F76900"/>
<path d="M96.0496 9.78939L100.04 9.26563C100.04 7.68186 99.2267 7.02092 98.3625 7.02092C96.8248 7.02092 96.1132 8.28045 96.0496 9.78939ZM96.0115 10.8369C96.0877 12.3833 97.1425 13.6054 98.5659 13.6054C99.8113 13.6054 100.675 13.0692 101.311 12.1463L101.743 12.4082C101.4 13.9546 100.065 15.0395 98.083 15.0395C96.0623 15.0395 94.3213 13.6179 94.3213 11.024C94.3213 7.50727 96.469 6.0108 98.4515 6.0108C100.32 6.0108 101.87 7.09574 101.87 9.66469L101.54 10.151L96.0115 10.8369Z" fill="#F76900"/>
<path d="M118.099 9.92656C118.099 13.2188 116.129 15.1268 112.71 15.1268C109.292 15.1268 107.322 13.2188 107.322 9.92656V2.58138L106.254 2.35691V1.4715H110.308V2.35691L109.241 2.58138V9.66467C109.241 12.2087 110.321 13.755 113.066 13.755C115.252 13.755 116.688 12.296 116.688 9.77691V2.58138L115.62 2.35691V1.4715H119.141V2.35691L118.073 2.58138V9.92656H118.099Z" fill="#F76900"/>
<path d="M119.585 14.7278V13.9671L120.399 13.7675V8.00613L119.369 7.7193V7.02095C120.373 6.85883 120.869 6.5346 121.314 5.87366L122.025 5.99836L121.924 7.68189C122.953 6.72166 124.11 5.99836 125.38 5.99836C126.664 5.99836 127.655 6.85883 127.655 7.98119V13.7177L128.685 13.9546V14.7153H125.203V13.9671L126.016 13.7675V8.76683C126.016 7.90636 125.584 7.44495 124.783 7.44495C124.173 7.44495 123.068 7.70683 122.025 8.60472V13.7177L123.055 13.9546V14.7153H119.585V14.7278Z" fill="#F76900"/>
<path d="M131.671 2.50659C132.243 2.50659 132.7 2.94306 132.7 3.50424C132.7 4.06542 132.256 4.50189 131.671 4.50189C131.099 4.50189 130.642 4.06542 130.642 3.50424C130.642 2.94306 131.086 2.50659 131.671 2.50659ZM129.828 14.7278V13.9671L130.743 13.7426V8.00612L129.714 7.7193V7.02094C130.718 6.85883 131.214 6.53459 131.658 5.87365L132.37 5.99836V13.7426L133.285 13.9671V14.7278H129.828Z" fill="#F76900"/>
<path d="M133.526 6.29761H137.275V7.05831L136.272 7.29525L138.623 12.4581L140.935 7.28278L139.97 7.05831V6.29761H143.096V7.05831C142.588 7.18302 142.194 7.35761 141.927 7.91878L138.673 14.9273H137.936L134.721 7.94372C134.454 7.40749 134.353 7.25784 133.514 7.05831V6.29761H133.526Z" fill="#F76900"/>
<path d="M144.761 9.78939L148.751 9.26563C148.751 7.68186 147.938 7.02092 147.074 7.02092C145.549 7.02092 144.824 8.28045 144.761 9.78939ZM144.723 10.8369C144.799 12.3833 145.854 13.6054 147.277 13.6054C148.522 13.6054 149.387 13.0692 150.022 12.1463L150.454 12.4082C150.111 13.9546 148.777 15.0395 146.794 15.0395C144.773 15.0395 143.032 13.6179 143.032 11.024C143.032 7.50727 145.18 6.0108 147.163 6.0108C149.031 6.0108 150.581 7.09574 150.581 9.66469L150.251 10.151L144.723 10.8369Z" fill="#F76900"/>
<path d="M156.579 8.21813C156.503 7.91883 156.173 7.61954 155.766 7.61954C155.131 7.61954 154.483 8.15577 154.05 8.67954V13.7177L155.08 13.9546V14.7153H151.598V13.9671L152.411 13.7675V8.00613L151.382 7.7193V7.02095C152.386 6.85883 152.881 6.5346 153.326 5.87366L154.038 5.99836L153.936 7.8066C154.406 7.00848 155.182 5.99836 156.414 5.99836C157.012 5.99836 157.647 6.36001 157.647 7.10825C157.634 7.8066 157.113 8.21813 156.579 8.21813Z" fill="#F76900"/>
<path d="M158.956 14.7278H158.448L158.041 12.2835L158.651 12.1464C159.147 13.144 160.15 14.0668 161.409 14.0668C162.54 14.0668 162.984 13.3186 162.984 12.7824C162.984 10.9118 158.333 11.236 158.333 8.40518C158.333 7.08329 159.502 5.99835 160.989 5.99835C161.853 5.99835 162.54 6.28518 162.908 6.55953L162.984 6.29765H163.62L164.014 8.44259L163.404 8.57976C163.137 7.99365 162.463 6.95859 161.167 6.95859C160.265 6.95859 159.884 7.49482 159.884 7.98118C159.884 9.68965 164.484 9.26565 164.484 12.2336C164.484 13.9047 163.01 15.0271 161.37 15.0271C160.494 15.0271 159.49 14.5407 159.134 14.1042L158.956 14.7278Z" fill="#F76900"/>
<path d="M167.369 2.50659C167.941 2.50659 168.398 2.94306 168.398 3.50424C168.398 4.06542 167.953 4.50189 167.369 4.50189C166.797 4.50189 166.339 4.06542 166.339 3.50424C166.339 2.94306 166.784 2.50659 167.369 2.50659ZM165.526 14.7278V13.9671L166.441 13.7426V8.00612L165.412 7.7193V7.02094C166.416 6.85883 166.911 6.53459 167.356 5.87365L168.068 5.99836V13.7426L168.983 13.9671V14.7278H165.526Z" fill="#F76900"/>
<path d="M170.736 13.2437V7.29527H169.402V6.53456C170.533 6.33503 171.27 5.32491 171.651 4.25244L172.363 4.37715V6.29762H174.613V7.29527H172.363V12.8946C172.363 13.5181 172.655 13.8548 173.176 13.8548C173.57 13.8548 173.939 13.6179 174.142 13.3684L174.574 13.6927C174.346 14.3411 173.609 15.0146 172.63 15.0146C171.563 15.027 170.736 14.4035 170.736 13.2437Z" fill="#F76900"/>
<path d="M177.027 19.1424C176.366 19.4292 175.82 19.1424 175.68 18.656L177.751 14.7278L174.638 7.94377C174.396 7.40753 173.901 7.30777 173.329 7.30777H171.588V6.31012H177.18V7.07083L176.176 7.30777L178.527 12.4706L180.84 7.2953L179.874 7.07083V6.31012H183V7.07083C182.492 7.19553 182.098 7.37012 181.831 7.9313L178.578 14.9398L177.027 19.1424Z" fill="#F76900"/>
<path d="M16.6479 10.7995H25.2515V4.65153C25.1244 4.51435 20.4477 0.124706 20.3206 0H4.77833C4.65125 0.137176 0.139792 4.51435 0 4.65153V15.9374C0.139792 16.0746 4.44792 20.352 4.58771 20.4892H16.6479V27.0362H8.67979V23.3075H0V29.4555C0.139792 29.5927 4.65125 33.9699 4.77833 34.1071H20.3206C20.4604 33.9824 25.1244 29.5927 25.2642 29.4555V18.1821C25.1371 18.0449 20.8162 13.7675 20.6765 13.6304H8.67979V7.07082H16.6479V10.7995Z" fill="#F76900"/>
</g>
<defs>
<clipPath id="clip0_1133_2054">
<rect width="183" height="53" fill="white"/>
</clipPath>
</defs>
</svg>
