<svg width="229" height="229" viewBox="0 0 229 229" fill="none" xmlns="http://www.w3.org/2000/svg">
<path d="M113.267 217.516C164.794 217.516 206.565 174.977 206.565 122.503C206.565 70.0284 164.794 27.4896 113.267 27.4896C61.7398 27.4896 19.9689 70.0284 19.9689 122.503C19.9689 174.977 61.7398 217.516 113.267 217.516Z" fill="#010F54"/>
<path d="M184.774 77.8304C192.736 72.8876 197.973 65.8287 198.73 57.6128C200.343 40.1153 181.054 24.0387 155.656 21.6993C141.279 20.3748 128.029 23.7393 118.94 30.0776C117.2 29.7934 115.444 29.5651 113.663 29.3976C70.0864 25.3835 31.3311 59.3433 27.1039 105.254C23.6227 143.055 44.6369 177.162 76.4907 190.275C85.077 194.406 94.5312 197.106 104.574 198.034C149.764 202.196 189.773 168.941 193.934 123.751C195.451 107.258 191.985 91.4559 184.769 77.8354L184.774 77.8304Z" fill="#010F54"/>
<path d="M122.285 215.146C110.643 216.907 99.9611 208.407 99.0578 196.669L92.5774 92.4251L125.811 91.8517L139.249 191.848C141.071 202.982 133.444 213.456 122.29 215.146H122.285Z" fill="url(#paint0_linear_1133_2156)"/>
<path d="M119.372 193.061L113.871 119.392L132.743 127.689L139.909 198.384H120.925L119.372 193.061Z" fill="#FF8E00"/>
<path d="M119.372 193.061C118.682 192.533 118.022 192.031 117.362 191.529C114.536 189.382 111.359 188.565 107.903 189.357C103.513 190.366 100.565 193.102 99.4333 197.466C98.3067 201.83 99.4841 205.697 102.915 208.65C108.806 213.725 114.81 218.673 120.767 223.666C121.523 224.301 122.361 224.225 123.015 223.479C123.553 222.865 124.076 222.24 124.609 221.626C129.08 216.41 133.571 211.208 138.021 205.966C142.802 200.333 141.112 191.955 134.575 188.687C130.069 186.434 124.736 187.423 121.148 191.183C120.564 191.797 119.986 192.417 119.377 193.061H119.372Z" fill="white"/>
<path d="M106.35 121.254C110.593 134.778 119.58 144.72 131.409 146.973C133.368 147.348 136.275 147.318 138.229 147.257L132.82 127.684L112.896 119.159L106.599 121.178L106.35 121.259V121.254Z" fill="#010F54"/>
<path d="M161.547 109.958C156.27 129.328 142.142 142.751 125.68 138.26C109.217 133.774 100.149 114.434 105.427 95.0691C110.704 75.699 128.329 63.6365 144.791 68.1225C161.253 72.6085 166.825 90.5881 161.542 109.953L161.547 109.958Z" fill="#FF8E00"/>
<path d="M144.791 68.1276C161.253 72.6136 166.825 90.5932 161.542 109.958C156.265 129.328 142.137 142.751 125.674 138.26C116.2 135.677 109.172 128.171 105.924 118.575" stroke="#010F54" stroke-width="2" stroke-linecap="round" stroke-linejoin="round"/>
<path d="M101.28 87.9594C103.615 90.6743 107.208 92.2221 111.034 91.7806C115.774 91.2326 119.473 87.7818 120.569 83.4074C129.937 89.6848 142.938 92.826 156.833 91.2123C182.526 88.2334 201.541 70.1473 199.298 50.8229C197.055 31.4934 178.096 20.3799 147.008 21.4557" fill="#010F54"/>
<path d="M98.6112 106.177C92.3795 107.324 86.4015 103.199 85.2546 96.967C84.1077 90.7353 88.2335 84.7573 94.4652 83.6104C98.3574 82.8949 102.158 84.2346 104.736 86.8633C106.284 88.4415 107.395 90.4815 107.822 92.8159" fill="#FF8E00"/>
<path d="M98.6112 106.178C92.3795 107.324 86.4015 103.199 85.2546 96.967C84.1077 90.7353 88.2335 84.7573 94.4652 83.6104C98.3574 82.8949 102.158 84.2346 104.736 86.8633C106.284 88.4415 107.395 90.4815 107.822 92.8159" stroke="#010F54" stroke-width="2" stroke-linecap="round" stroke-linejoin="round"/>
<path d="M122.285 113.348C128.061 113.348 132.743 108.665 132.743 102.889C132.743 97.1128 128.061 92.4302 122.285 92.4302C116.508 92.4302 111.826 97.1128 111.826 102.889C111.826 108.665 116.508 113.348 122.285 113.348Z" fill="white"/>
<path d="M122.285 111.303C126.931 111.303 130.698 107.536 130.698 102.889C130.698 98.2422 126.931 94.4752 122.285 94.4752C117.638 94.4752 113.871 98.2422 113.871 102.889C113.871 107.536 117.638 111.303 122.285 111.303Z" fill="#010F54"/>
<path d="M127.41 110.324C128.2 110.324 128.841 109.683 128.841 108.892C128.841 108.102 128.2 107.461 127.41 107.461C126.62 107.461 125.979 108.102 125.979 108.892C125.979 109.683 126.62 110.324 127.41 110.324Z" fill="white"/>
<path d="M158.792 126.4C164.568 126.4 169.251 121.718 169.251 115.941C169.251 110.165 164.568 105.482 158.792 105.482C153.016 105.482 148.333 110.165 148.333 115.941C148.333 121.718 153.016 126.4 158.792 126.4Z" fill="white"/>
<path d="M158.792 124.355C163.439 124.355 167.206 120.588 167.206 115.941C167.206 111.294 163.439 107.527 158.792 107.527C154.145 107.527 150.378 111.294 150.378 115.941C150.378 120.588 154.145 124.355 158.792 124.355Z" fill="#010F54"/>
<path d="M163.912 123.376C164.702 123.376 165.343 122.735 165.343 121.945C165.343 121.154 164.702 120.514 163.912 120.514C163.122 120.514 162.481 121.154 162.481 121.945C162.481 122.735 163.122 123.376 163.912 123.376Z" fill="white"/>
<path d="M121.366 123.497C120.899 124.7 119.539 125.299 118.336 124.827C117.134 124.355 116.535 123 117.007 121.797" stroke="#010F54" stroke-width="2" stroke-linecap="round" stroke-linejoin="round"/>
<path d="M140.432 115.941C141.32 114.282 142.071 112.526 142.664 110.694" stroke="#010F54" stroke-width="2" stroke-linecap="round" stroke-linejoin="round"/>
<path d="M138.006 119.864C138.422 120.635 139.229 121.163 140.163 121.183C141.548 121.209 142.69 120.113 142.72 118.727C142.751 117.342 141.65 116.2 140.264 116.17" stroke="#010F54" stroke-width="2" stroke-linecap="round" stroke-linejoin="round"/>
<path d="M173.767 107.04C170.854 104 166.927 102.275 162.72 102.184C158.508 102.097 154.514 103.65 151.474 106.563C148.434 109.476 146.709 113.404 146.618 117.611C146.435 126.304 153.357 133.525 162.05 133.713C162.166 133.713 162.278 133.713 162.39 133.713C170.93 133.713 177.969 126.857 178.152 118.281C178.243 114.069 176.685 110.075 173.772 107.035L173.767 107.04Z" stroke="#FFB361" stroke-width="2" stroke-linecap="round" stroke-linejoin="round"/>
<path d="M124.827 87.1627C116.134 86.9952 108.913 93.9019 108.725 102.595C108.634 106.807 110.192 110.801 113.104 113.84C116.017 116.88 119.945 118.605 124.152 118.697C124.264 118.697 124.38 118.697 124.492 118.697C133.033 118.697 140.071 111.841 140.254 103.265C140.345 99.0527 138.787 95.0589 135.875 92.0192C132.962 88.9795 129.034 87.2541 124.827 87.1627Z" stroke="#FFB361" stroke-width="2" stroke-linecap="round" stroke-linejoin="round"/>
<path d="M138.605 110.252L140.386 108.674C141.411 107.766 142.842 107.456 144.151 107.862C145.582 108.304 146.633 109.527 146.866 111.004L147.216 113.247" stroke="#FFB361" stroke-width="2" stroke-linecap="round" stroke-linejoin="round"/>
<path d="M94.1151 89.2738C94.1151 89.2738 103.082 89.015 102.326 98.7837" stroke="#010F54" stroke-width="2" stroke-linecap="round" stroke-linejoin="round"/>
<path d="M96.764 90.1974C96.764 90.1974 93.2574 92.6129 93.7649 97.0127" stroke="#010F54" stroke-width="2" stroke-linecap="round" stroke-linejoin="round"/>
<path d="M117.915 4.44541C115.221 3.9278 112.323 6.85589 110.867 11.2556C107.127 8.84516 103.214 8.37829 101.448 10.3777C99.3318 12.773 101.098 17.7867 105.391 21.5775C109.684 25.3683 114.881 26.5 116.992 24.1098C117.022 24.0743 117.048 24.0337 117.073 23.9982C119.113 22.5671 120.894 19.502 121.62 15.7264C122.706 10.1037 121.041 5.05437 117.905 4.44541H117.915Z" fill="#010F54"/>
<path d="M113.394 217.516C115.85 219.566 118.306 221.616 120.757 223.667C121.513 224.301 122.351 224.225 123.005 223.479C123.543 222.865 124.066 222.241 124.599 221.627C126.177 219.784 127.755 217.947 129.333 216.11C124.152 217.029 118.829 217.511 113.389 217.516H113.394Z" fill="#010F54"/>
<path d="M91.1362 176.863C98.7062 176.863 104.843 170.726 104.843 163.156C104.843 155.586 98.7062 149.449 91.1362 149.449C83.5661 149.449 77.4294 155.586 77.4294 163.156C77.4294 170.726 83.5661 176.863 91.1362 176.863Z" fill="#010F54" stroke="#010F54" stroke-width="2" stroke-linecap="round" stroke-linejoin="round"/>
<path d="M89.1063 176.863C96.6763 176.863 102.813 170.726 102.813 163.156C102.813 155.586 96.6763 149.449 89.1063 149.449C81.5363 149.449 75.3996 155.586 75.3996 163.156C75.3996 170.726 81.5363 176.863 89.1063 176.863Z" fill="#FF8E00" stroke="#010F54" stroke-width="2" stroke-linecap="round" stroke-linejoin="round"/>
<path d="M95.2669 159.355C96.119 159.355 96.8096 158.664 96.8096 157.812C96.8096 156.96 96.119 156.27 95.2669 156.27C94.4149 156.27 93.7242 156.96 93.7242 157.812C93.7242 158.664 94.4149 159.355 95.2669 159.355Z" fill="#010F54"/>
<path d="M82.7832 159.355C83.6353 159.355 84.3259 158.664 84.3259 157.812C84.3259 156.96 83.6353 156.27 82.7832 156.27C81.9312 156.27 81.2405 156.96 81.2405 157.812C81.2405 158.664 81.9312 159.355 82.7832 159.355Z" fill="#010F54"/>
<path d="M84.7877 162.095C85.7012 163.445 87.2439 164.333 88.9946 164.333C90.7454 164.333 92.2932 163.445 93.2015 162.095" stroke="#010F54" stroke-width="2" stroke-linecap="round" stroke-linejoin="round"/>
<defs>
<linearGradient id="paint0_linear_1133_2156" x1="111.146" y1="98.87" x2="119.519" y2="198.252" gradientUnits="userSpaceOnUse">
<stop offset="0.09" stop-color="#FF8E00"/>
<stop offset="0.4" stop-color="#F76900"/>
</linearGradient>
</defs>
</svg>
