<svg width="26" height="26" viewBox="0 0 26 26" fill="none" xmlns="http://www.w3.org/2000/svg">
<path d="M20.7695 5.99736L14.5426 5.8549L15.7996 3.77635C12.3163 2.79229 8.42137 3.67944 5.67739 6.44155C1.63287 10.5212 1.62647 17.1204 5.67674 21.1898C9.7287 25.2609 16.2846 25.2603 20.3278 21.1904C22.1975 19.3 23.3584 16.6923 23.3584 13.816H24.6071C24.6071 17.0401 23.3043 19.9629 21.2119 22.0782L21.2109 22.0791C16.6797 26.6405 9.33363 26.6399 4.79463 22.0795C0.253944 17.5174 0.264116 10.1221 4.79377 5.55336C7.95755 2.3685 12.4863 1.40901 16.4711 2.66599L17.7809 0.5L20.7695 5.99736Z" fill="white"/>
</svg>
