<svg width="26" height="26" viewBox="0 0 26 26" fill="none" xmlns="http://www.w3.org/2000/svg">
<path d="M20.7695 5.99736L14.5427 5.8549L15.7996 3.77635C12.3164 2.79229 8.42141 3.67944 5.67742 6.44155C1.63291 10.5212 1.6265 17.1204 5.67677 21.1898C9.72873 25.2609 16.2847 25.2603 20.3278 21.1904C22.1975 19.3 23.3584 16.6923 23.3584 13.816H24.6071C24.6071 17.0401 23.3043 19.9629 21.2119 22.0782L21.211 22.0791C16.6797 26.6405 9.33367 26.6399 4.79467 22.0795C0.253978 17.5174 0.26415 10.1221 4.79381 5.55336C7.95759 2.3685 12.4864 1.40901 16.4711 2.66599L17.781 0.5L20.7695 5.99736Z" fill="white"/>
</svg>
