<svg width="26" height="26" viewBox="0 0 26 26" fill="none" xmlns="http://www.w3.org/2000/svg">
<path d="M20.7695 5.99736L14.5427 5.8549L15.7997 3.77635C12.3164 2.79229 8.42143 3.67944 5.67745 6.44155C1.63294 10.5212 1.62653 17.1204 5.6768 21.1898C9.72876 25.2609 16.2847 25.2603 20.3278 21.1904C22.1975 19.3 23.3585 16.6923 23.3585 13.816H24.6072C24.6072 17.0401 23.3043 19.9629 21.2119 22.0782L21.211 22.0791C16.6797 26.6405 9.33369 26.6399 4.79469 22.0795C0.254005 17.5174 0.264177 10.1221 4.79384 5.55336C7.95761 2.3685 12.4864 1.40901 16.4711 2.66599L17.781 0.5L20.7695 5.99736Z" fill="white"/>
</svg>
