<svg width="47" height="66" viewBox="0 0 47 66" fill="none" xmlns="http://www.w3.org/2000/svg">
<g clip-path="url(#clip0_1133_2109)">
<path d="M30.9874 20.9089C31.8164 20.9089 46.1742 20.9055 47 20.9055V9.00091C46.7356 8.7445 38.0537 0.246418 37.8056 0H8.89736C8.64604 0.253078 0.254583 8.74117 0 8.99758V30.8355C0.248056 31.0919 8.28375 39.3902 8.53833 39.6466H30.9874V52.3105H16.1497V45.0911C15.3207 45.0911 0.829028 45.0911 0 45.0911V56.9991C0.254583 57.2555 8.64604 65.7436 8.89736 66H37.8056C38.0537 65.7536 46.7356 57.2555 47 56.9958V35.1645C46.7519 34.9081 38.7163 26.6098 38.4617 26.35H16.1497V13.6895H30.9874V20.9089Z" fill="#F76900"/>
</g>
<defs>
<clipPath id="clip0_1133_2109">
<rect width="47" height="66" fill="white"/>
</clipPath>
</defs>
</svg>
